<svg xmlns="http://www.w3.org/2000/svg" width="30.371" height="21.712" viewBox="0 0 30.371 21.712">
  <g id="Grupo_13124" data-name="Grupo 13124" transform="translate(-1945.892 -953.747)">
    <path id="Trazado_4900" data-name="Trazado 4900" d="M1945.892,969.241a11.661,11.661,0,0,1,1.321,1.181q3.7,3.433,7.391,6.884c.137.128.271.261.418.377.183.143.152.249,0,.4-.985.942-1.96,1.894-2.941,2.84q-2.335,2.252-4.673,4.5c-.406.39-.814.777-1.217,1.17-.124.121-.224.169-.294-.043Z" transform="translate(0 -12.936)" fill="#fff"/>
    <path id="Trazado_4901" data-name="Trazado 4901" d="M1965.349,953.748q6.37,0,12.739,0a2.84,2.84,0,0,1,1.073.183c.333.133.345.182.088.429q-2.2,2.117-4.4,4.232l-8.681,8.367c-.206.2-.428.383-.62.594-.165.181-.288.176-.461.01-.621-.593-1.254-1.175-1.881-1.761l-11.171-10.432c-.318-.3-.628-.6-.956-.885-.177-.153-.14-.234.032-.35a2.52,2.52,0,0,1,1.466-.384Q1958.964,953.747,1965.349,953.748Z" transform="translate(-4.236 0)" fill="#fff"/>
    <path id="Trazado_4902" data-name="Trazado 4902" d="M1968.6,1038.416q-6.37,0-12.739,0a3.622,3.622,0,0,1-.792-.086c-.082-.018-.2-.018-.216-.124-.015-.086.08-.127.135-.181q3.005-2.9,6.011-5.8c.974-.939,1.953-1.872,2.919-2.818.171-.168.271-.147.433.006,1.122,1.056,2.254,2.1,3.378,3.153a1.038,1.038,0,0,0,1.691,0c1.13-1.09,2.264-2.176,3.389-3.271.167-.162.274-.189.459-.016q4.539,4.254,9.088,8.5c.358.335.348.371-.114.522a2.772,2.772,0,0,1-.875.125Q1974.986,1038.414,1968.6,1038.416Z" transform="translate(-7.482 -62.958)" fill="#fff"/>
    <path id="Trazado_4903" data-name="Trazado 4903" d="M2083.125,975.717q0,4.206,0,8.411c0,.1.046.231-.041.278-.119.064-.183-.082-.256-.15q-3.52-3.28-7.037-6.565c-.577-.539-1.148-1.085-1.736-1.612-.208-.186-.2-.3,0-.49q3.377-3.239,6.741-6.491,1.012-.976,2.025-1.953c.069-.066.135-.19.233-.157.129.043.071.188.071.288Q2083.127,971.5,2083.125,975.717Z" transform="translate(-106.873 -11.051)" fill="#fff"/>
  </g>
</svg>
