<svg xmlns="http://www.w3.org/2000/svg" width="126.09" height="41.419" viewBox="0 0 126.09 41.419">
  <g id="Grupo_16585" data-name="Grupo 16585" transform="translate(-260 -17.791)">
    <g id="Grupo_262" data-name="Grupo 262" transform="translate(260 23.835)">
      <path id="Trazado_633" data-name="Trazado 633" d="M-1323.689,496.112h4.711v23.423h-4.711Z" transform="translate(1323.689 -496.112)" fill="#fff"/>
    </g>
    <g id="Grupo_263" data-name="Grupo 263" transform="translate(270.444 23.302)">
      <path id="Trazado_634" data-name="Trazado 634" d="M-1228.1,501.845V516.29h-4.711v-13.6c0-3.867-2.311-6.178-6.045-6.133a5.865,5.865,0,0,0-6.133,5.467V516.29h-4.711V492.867h4.444v2.978a9.578,9.578,0,0,1,7.733-3.511C-1231.656,492.334-1228.1,496.112-1228.1,501.845Z" transform="translate(1249.701 -492.334)" fill="#fff"/>
    </g>
    <g id="Grupo_264" data-name="Grupo 264" transform="translate(294.134 23.835)">
      <path id="Trazado_635" data-name="Trazado 635" d="M-1058.016,496.112l-9.245,23.423h-5.378l-9.245-23.423h4.889l7.067,18.934,7.022-18.934Z" transform="translate(1081.883 -496.112)" fill="#fff"/>
    </g>
    <g id="Grupo_265" data-name="Grupo 265" transform="translate(321.157 23.835)">
      <path id="Trazado_636" data-name="Trazado 636" d="M-890.448,496.112h4.711v23.423h-4.711Z" transform="translate(890.448 -496.112)" fill="#fff"/>
    </g>
    <g id="Grupo_266" data-name="Grupo 266" transform="translate(329.245 17.791)">
      <path id="Trazado_637" data-name="Trazado 637" d="M-828.97,474.582v-11.2h-4.178v-4.045h2.267c1.511,0,2.178-.755,2.178-2.267v-3.778h4.578v6.044h6.534v4.045H-824.3v10.711c0,2.934,1.555,4.534,4.356,4.534h2.622v4.133h-3.556C-826.17,482.76-828.97,479.6-828.97,474.582Z" transform="translate(833.148 -453.293)" fill="#fff"/>
    </g>
    <g id="Grupo_267" data-name="Grupo 267" transform="translate(348.49 23.302)">
      <path id="Trazado_638" data-name="Trazado 638" d="M-685.172,492.334v4.4c-4.178.044-6.933,2.533-6.933,5.822V516.29h-4.711V492.867h4.445v2.978A9.14,9.14,0,0,1-685.172,492.334Z" transform="translate(696.817 -492.334)" fill="#fff"/>
    </g>
    <g id="Grupo_268" data-name="Grupo 268" transform="translate(361.423 23.346)">
      <path id="Trazado_639" data-name="Trazado 639" d="M-581.376,501.265q-.068.1-.142.189c-.023.029-.046.057-.069.085-.087.105-.179.207-.275.3l-.012.011c-.082.081-.168.158-.256.233q-.079.068-.161.132l-.008.006a4.747,4.747,0,0,1-2.939,1.017c-.044,0-.087-.005-.131-.007a10.07,10.07,0,0,1,.131,1.635c0,4.667-3.111,8-7.6,8-4.533,0-7.645-3.378-7.645-8,0-4.711,3.111-8.044,7.645-8.044a8.046,8.046,0,0,1,2.961.542,4.774,4.774,0,0,1,2.951-3.356,13.124,13.124,0,0,0-5.957-1.363,11.861,11.861,0,0,0-12.311,12.223,11.886,11.886,0,0,0,12.311,12.222,11.9,11.9,0,0,0,12.356-12.222,13.249,13.249,0,0,0-.6-3.986Q-581.242,501.081-581.376,501.265Z" transform="translate(605.194 -492.648)" fill="#fff"/>
    </g>
    <g id="Grupo_269" data-name="Grupo 269" transform="translate(378.37 26.159)">
      <circle id="Elipse_39" data-name="Elipse 39" cx="3.01" cy="3.01" r="3.01" fill="#fff"/>
    </g>
    <g id="Grupo_270" data-name="Grupo 270" transform="translate(260.144 51.803)">
      <path id="Trazado_640" data-name="Trazado 640" d="M-1318.011,700.4h-2.915l-.659,1.875h-1.081l2.534-7.159h1.318l2.544,7.159h-1.082Zm-.319-.9-1.133-3.234-1.144,3.234Z" transform="translate(1322.667 -694.994)" fill="#fff"/>
      <path id="Trazado_641" data-name="Trazado 641" d="M-1234.042,701.648a3.546,3.546,0,0,1-3.615-3.7,3.54,3.54,0,0,1,3.605-3.708,3.328,3.328,0,0,1,3.265,2.184l-1.051.433a2.229,2.229,0,0,0-2.235-1.576,2.469,2.469,0,0,0-2.472,2.688,2.5,2.5,0,0,0,2.585,2.688,2.336,2.336,0,0,0,2.421-2.05h-2.534v-.845h3.584A3.541,3.541,0,0,1-1234.042,701.648Z" transform="translate(1249.657 -694.242)" fill="#fff"/>
      <path id="Trazado_642" data-name="Trazado 642" d="M-1136.264,701.319v.958h-4.635v-7.159h4.573v.958h-3.481v2.039h3.131v.948h-3.131v2.256Z" transform="translate(1166.557 -694.994)" fill="#fff"/>
      <path id="Trazado_643" data-name="Trazado 643" d="M-1056.268,695.118v7.159h-.917l-3.523-5.264v5.264h-1.092v-7.159h.907l3.533,5.284v-5.284Z" transform="translate(1098.624 -694.994)" fill="#fff"/>
      <path id="Trazado_644" data-name="Trazado 644" d="M-976.205,697.95a3.538,3.538,0,0,1,3.595-3.708,3.293,3.293,0,0,1,3.276,2.3l-1.051.422a2.21,2.21,0,0,0-2.245-1.679,2.467,2.467,0,0,0-2.462,2.668,2.462,2.462,0,0,0,2.482,2.657,2.184,2.184,0,0,0,2.225-1.679l1.051.422a3.25,3.25,0,0,1-3.255,2.3A3.54,3.54,0,0,1-976.205,697.95Z" transform="translate(1025.112 -694.242)" fill="#fff"/>
      <path id="Trazado_645" data-name="Trazado 645" d="M-882.366,695.118h1.092v7.159h-1.092Z" transform="translate(944.519 -694.994)" fill="#fff"/>
      <path id="Trazado_646" data-name="Trazado 646" d="M-825.974,700.4h-2.915l-.659,1.875h-1.082l2.534-7.159h1.319l2.544,7.159h-1.082Zm-.319-.9-1.133-3.234-1.143,3.234Z" transform="translate(900.086 -694.994)" fill="#fff"/>
    </g>
  </g>
</svg>
