<svg xmlns="http://www.w3.org/2000/svg" width="18.937" height="15.04" viewBox="0 0 18.937 15.04">
  <path id="Icon_ionic-ios-arrow-round-forward" data-name="Icon ionic-ios-arrow-round-forward" d="M23.718,11.54a1.1,1.1,0,0,0-.007,1.441l4.319,4.77H13.107s-.916.454-.916,1.018a.972.972,0,0,0,.916,1.018H28.023L23.7,24.558A1.108,1.108,0,0,0,23.711,26a.86.86,0,0,0,1.3-.008l5.854-6.5h0a1.16,1.16,0,0,0,.192-.321,1.059,1.059,0,0,0,.071-.392,1.078,1.078,0,0,0-.263-.713l-5.854-6.5A.847.847,0,0,0,23.718,11.54Z" transform="translate(-12.19 -11.252)" fill="#fff"/>
</svg>
